<?xml version="1.0" encoding="UTF-8" standalone="no"?>
<svg
   xmlns:dc="http://purl.org/dc/elements/1.1/"
   xmlns:cc="http://creativecommons.org/ns#"
   xmlns:rdf="http://www.w3.org/1999/02/22-rdf-syntax-ns#"
   xmlns:svg="http://www.w3.org/2000/svg"
   xmlns="http://www.w3.org/2000/svg"
   xmlns:sodipodi="http://sodipodi.sourceforge.net/DTD/sodipodi-0.dtd"
   xmlns:inkscape="http://www.inkscape.org/namespaces/inkscape"
   id="svg2602"
   sodipodi:version="0.32"
   inkscape:version="1.0.2 (1.0.2+r75+1)"
   width="386"
   height="388"
   version="1.0"
   sodipodi:docname="big-logo.svg"
   inkscape:output_extension="org.inkscape.output.svg.inkscape"
   inkscape:export-filename="/home/user/Documents/flipper/src/assets/world.png"
   inkscape:export-xdpi="96"
   inkscape:export-ydpi="96">
  <metadata
     id="metadata2607">
    <rdf:RDF>
      <cc:Work
         rdf:about="">
        <dc:format>image/svg+xml</dc:format>
        <dc:type
           rdf:resource="http://purl.org/dc/dcmitype/StillImage" />
      </cc:Work>
    </rdf:RDF>
  </metadata>
  <defs
     id="defs2605">
    <inkscape:perspective
       sodipodi:type="inkscape:persp3d"
       inkscape:vp_x="0 : 526.18109 : 1"
       inkscape:vp_y="0 : 1000 : 0"
       inkscape:vp_z="744.09448 : 526.18109 : 1"
       inkscape:persp3d-origin="372.04724 : 350.78739 : 1"
       id="perspective2609" />
  </defs>
  <sodipodi:namedview
     inkscape:window-height="704"
     inkscape:window-width="1366"
     inkscape:pageshadow="2"
     inkscape:pageopacity="0.0"
     guidetolerance="10.0"
     gridtolerance="10.0"
     objecttolerance="10.0"
     borderopacity="1.0"
     bordercolor="#666666"
     pagecolor="#ffffff"
     id="base"
     showgrid="false"
     inkscape:zoom="0.84196732"
     inkscape:cx="-136.9588"
     inkscape:cy="153.30021"
     inkscape:window-x="0"
     inkscape:window-y="0"
     inkscape:current-layer="svg2602"
     inkscape:document-rotation="0"
     inkscape:window-maximized="1" />
  <path
     style="fill:#8fbc8f;stroke:#8fbc8f;stroke-width:0.451991"
     d="m 182.35955,281.20443 c -15.21159,-1.77244 -30.3456,-7.95957 -42.86014,-17.52219 -3.73017,-2.85031 -11.09379,-10.02127 -14.26888,-13.89558 -12.8132,-15.63491 -19.86147,-35.4827 -19.85435,-55.90946 0.002,-6.08372 1.09494,-15.22625 2.47351,-20.6935 5.98556,-23.73798 21.08634,-43.74956 41.94755,-55.58898 36.12766,-20.503614 81.99777,-12.19512 108.7268,19.69379 18.66709,22.27066 25.20912,52.30005 17.49826,80.32091 -10.47068,38.04986 -45.13439,64.40175 -84.2281,64.03151 -3.40545,-0.0323 -7.65104,-0.22868 -9.43465,-0.4365 z m 40.42134,-6.53116 c 8.65001,-3.15154 18.15851,-8.90524 26.71605,-16.16616 6.32593,-5.36745 12.76501,-13.47139 18.36149,-23.109 3.45579,-5.95115 3.7251,-7.16078 1.90234,-8.5446 -1.25409,-0.95209 -1.28378,-0.95331 -2.71195,-0.1106 -2.76188,1.62967 -6.41952,3.41829 -7.00188,3.42398 -0.3223,0.003 -0.93017,-0.59391 -1.35079,-1.32681 -1.50481,-2.62198 -4.1507,-2.94678 -7.55501,-0.92741 -2.77579,1.64653 -3.18578,1.65923 -5.38227,0.16668 l -1.7502,-1.18929 -1.98274,0.96329 c -2.60217,1.26424 -3.21103,1.2169 -4.09202,-0.31813 l -0.73544,-1.28142 -3.19845,1.58716 c -1.75916,0.87294 -4.10938,1.70382 -5.22272,1.84642 -1.77102,0.22681 -2.07239,0.42888 -2.40899,1.61521 -0.2116,0.74579 -0.59516,1.96617 -0.85237,2.71195 -0.96487,2.79776 -0.95023,3.69683 0.0719,4.41272 l 0.97434,0.68245 -1.68555,2.65031 c -1.74951,2.75089 -3.54258,4.97777 -7.994,9.9281 -1.61307,1.79385 -2.49201,3.12581 -2.28807,3.46737 0.18213,0.30503 1.63894,2.01767 3.23735,3.80586 2.9552,3.30606 4.48034,4.20659 7.12429,4.20659 4.39243,0 3.95579,1.3367 -2.62942,8.04955 -3.04529,3.1043 -5.1301,5.49472 -4.63291,5.31203 0.49719,-0.1827 2.78637,-1.01801 5.08707,-1.85625 z m -3.5051,-35.46084 c 1.07337,-1.07337 1.27111,-2.22334 0.23436,-1.36291 -0.53585,0.44471 -1.12811,0.39086 -2.96468,-0.26955 -1.26228,-0.45391 -2.50623,-1.07974 -2.76431,-1.39072 -0.2581,-0.31098 -0.52717,-1.86218 -0.59794,-3.44711 -0.15993,-3.58196 -0.72424,-4.67548 -2.6045,-5.04699 -4.17687,-0.82531 -4.66939,-1.51386 -4.20235,-5.875 0.37107,-3.46501 -0.22953,-4.30674 -3.06554,-4.29636 -2.40751,0.009 -2.82133,0.30672 -3.18638,2.29375 -0.43919,2.3906 -2.09448,3.76648 -4.13333,3.43562 -2.24794,-0.3648 -5.61587,-2.90389 -7.15593,-5.39488 -1.25747,-2.0339 -1.28043,-2.18521 -0.96668,-6.37011 l 0.32139,-4.28672 2.00934,-1.443 c 1.10514,-0.79364 3.16711,-1.71431 4.58216,-2.04591 2.36369,-0.55391 2.69434,-0.53174 4.06764,0.27283 1.84435,1.08055 1.89513,1.0805 1.89513,-10e-4 0,-1.19413 0.35055,-1.34847 4.63497,-2.04073 2.04977,-0.33119 4.16909,-0.7451 4.7096,-0.91979 0.78638,-0.25415 1.11298,-0.0605 1.63455,0.96912 0.3585,0.70771 0.78895,1.99862 0.95655,2.86871 0.1676,0.87008 0.88396,2.25896 1.5919,3.0864 l 1.28718,1.50444 0.72845,-1.04002 c 1.02529,-1.46381 0.90764,-3.40601 -0.40151,-6.62785 -0.62149,-1.52949 -1.12998,-3.11992 -1.12998,-3.53431 0,-0.78303 2.31531,-3.83289 4.85741,-6.39846 1.2346,-1.246 1.47046,-1.82029 1.47046,-3.58034 0,-1.32362 -0.27812,-2.40362 -0.75454,-2.93006 -0.70664,-0.78083 -0.70068,-0.87315 0.0937,-1.45402 0.46653,-0.34114 1.07499,-1.30403 1.35214,-2.13977 0.34974,-1.05464 1.28793,-2.06295 3.06665,-3.29585 2.41378,-1.67308 2.51987,-1.82372 1.82501,-2.59153 -0.68619,-0.75823 -0.66225,-0.9282 0.34258,-2.43216 0.9564,-1.43147 1.25182,-1.59065 2.57535,-1.38758 2.17823,0.33422 2.76999,-0.0603 3.08977,-2.06013 0.24715,-1.54561 0.51914,-1.8806 2.01185,-2.47787 1.55881,-0.6237 1.70092,-0.81643 1.46646,-1.98872 -0.58927,-2.94636 0.1661,-3.73105 4.52521,-4.70074 l 1.28856,-0.28663 -2.49679,-1.78792 c -1.37324,-0.98335 -2.59589,-1.78791 -2.71701,-1.78791 -0.12111,0 -1.04186,1.30098 -2.04609,2.89106 -1.7182,2.72058 -3.87645,4.79279 -4.9918,4.79279 -0.27237,0 -0.49521,-0.18677 -0.49521,-0.41503 0,-0.22826 -0.12002,-0.72778 -0.26671,-1.11003 -0.17048,-0.44429 0.47021,-1.4425 1.77604,-2.76706 3.7283,-3.78181 3.21299,-6.14347 -1.83467,-8.4082 -2.14118,-0.96068 -3.71816,-2.1208 -5.63785,-4.14752 -1.85926,-1.96291 -2.57942,-2.49968 -2.38157,-1.7751 0.15599,0.57127 0.0421,1.32973 -0.25319,1.68547 -0.67483,0.81313 -1.8121,0.28872 -4.0891,-1.88555 -1.29237,-1.23407 -2.18301,-1.63224 -4.47756,-2.00177 -3.81054,-0.61367 -4.70147,-0.27113 -2.94259,1.13136 1.1433,0.91163 1.24059,1.15419 0.71629,1.78593 -0.49294,0.59396 -0.50136,0.98535 -0.0448,2.08741 0.30901,0.74601 0.7079,1.35638 0.88644,1.35638 0.44646,0 1.37368,2.11732 1.37368,3.13684 0,0.4589 -0.30672,0.95206 -0.68161,1.09592 -0.567,0.21757 -0.63179,0.9097 -0.38531,4.11627 0.20227,2.63142 0.14211,3.85472 -0.18956,3.85472 -0.69492,0 -2.32928,-2.19848 -2.6587,-3.57637 -0.15378,-0.64325 -0.56138,-1.72887 -0.90576,-2.41251 -0.53953,-1.071 -0.89961,-1.24298 -2.60262,-1.24298 -1.3219,0 -2.83014,-0.44906 -4.5542,-1.35597 -1.41776,-0.74578 -2.94476,-1.35597 -3.39333,-1.35597 -0.56551,0 -1.03328,-0.63886 -1.5255,-2.08343 -0.80376,-2.3589 -0.65545,-2.84502 1.79243,-5.87537 1.6541,-2.04768 2.91241,-2.67354 6.28518,-3.12613 l 2.25479,-0.30257 -1.2919,-0.67689 c -1.09979,-0.57625 -1.19894,-0.76985 -0.66677,-1.30202 0.34382,-0.34382 1.26641,-0.75338 2.05019,-0.91014 1.23773,-0.24754 1.44491,-0.15065 1.57592,0.73705 0.12311,0.83419 0.69091,1.17433 3.08879,1.85033 6.04292,1.70361 7.2805,1.19035 7.37575,-3.05888 0.0519,-2.31268 -0.13119,-2.93032 -1.42466,-4.80749 -1.62613,-2.35993 -2.77765,-3.26555 -4.77845,-3.75803 -0.99664,-0.24531 -1.45601,-0.12807 -1.90519,0.48621 -0.47997,0.6564 -1.00086,0.76011 -2.75462,0.54844 -1.18949,-0.14356 -2.92545,-0.58225 -3.85768,-0.97487 -1.47133,-0.61967 -1.69497,-0.91039 -1.69497,-2.20337 0,-0.81923 0.27326,-1.86322 0.60725,-2.31998 0.58624,-0.80173 0.71527,-0.79472 3.72892,0.20245 8.71368,2.88321 8.91264,2.99778 14.63651,8.42811 2.95884,2.8071 5.854,5.22285 6.43369,5.36835 0.57971,0.14549 2.43356,0.20332 4.11969,0.12852 l 3.06569,-0.13601 -3.11257,-3.16556 c -2.53655,-2.57975 -3.16845,-3.51509 -3.41458,-5.0543 -0.16611,-1.0388 -0.12439,-2.36014 0.0927,-2.93631 0.65576,-1.74028 -0.12468,-2.90485 -2.48585,-3.70938 -1.18873,-0.40504 -3.50482,-1.54819 -5.14689,-2.54034 -2.65637,-1.60501 -5.17863,-2.44712 -11.42172,-3.8134 -0.75514,-0.16526 -1.42229,-0.7051 -1.66709,-1.34897 -0.22446,-0.59039 -0.62406,-1.2069 -0.88799,-1.37002 -0.26393,-0.16312 -0.47987,-0.61595 -0.47987,-1.00629 0,-0.60828 0.46834,-0.66529 3.27693,-0.39885 3.16683,0.30042 3.2409,0.28503 2.20442,-0.45811 -1.39491,-1.00014 -5.21995,-2.4479 -6.46746,-2.4479 -0.53703,0 -2.21286,-0.5943 -3.72407,-1.32067 l -2.74767,-1.32068 -6.55387,0.86195 c -3.60462,0.47407 -7.97764,0.83191 -9.7178,0.79518 -3.45017,-0.0728 -5.10636,0.52662 -6.97165,2.52325 -0.80378,0.86038 -1.54869,1.17292 -2.79552,1.17292 -2.64411,0 -4.01326,0.72719 -7.18248,3.81479 -2.95179,2.87576 -3.75621,3.28372 -9.49181,4.81377 l -2.03396,0.54258 3.38993,0.66789 c 1.86446,0.36734 4.12913,0.69373 5.03258,0.72532 1.15233,0.0403 2.02649,0.44098 2.92854,1.34238 2.1091,2.10753 3.55266,2.6656 5.49776,2.1254 2.45638,-0.6822 4.66691,-0.58206 5.26699,0.23861 0.46384,0.63433 0.90265,0.55897 4.06887,-0.69878 4.52812,-1.79876 6.00886,-1.54786 1.94775,0.33003 -3.27261,1.51329 -3.31516,1.56614 -3.69443,4.58876 -0.13754,1.0962 -0.34921,2.09223 -0.47038,2.21339 -0.12116,0.12117 -1.52048,-0.41978 -3.1096,-1.2021 -1.58913,-0.78232 -3.25154,-1.42241 -3.69426,-1.42241 -0.44272,0 -1.53644,-0.79059 -2.43048,-1.75687 -1.23136,-1.33083 -2.37692,-1.98846 -4.72409,-2.71194 -4.97498,-1.53346 -7.1542,-1.03415 -3.53807,0.81066 1.89002,0.96423 3.08953,2.15801 2.63004,2.6175 -0.1614,0.16141 -1.24498,-0.002 -2.40793,-0.36317 -1.5054,-0.46751 -2.32745,-1.04341 -2.85392,-1.99937 -1.43785,-2.61082 -4.73731,-3.34311 -7.19092,-1.59598 -1.37964,0.98238 -2.35718,1.04815 -4.17307,0.28075 -0.4843,-0.20467 -1.07716,0.0419 -1.69496,0.70509 -1.20935,1.29807 -1.19408,1.47007 0.19654,2.21431 0.63068,0.33753 1.08391,0.93124 1.00718,1.31936 -0.11018,0.55732 -0.79054,0.70566 -3.23653,0.70566 -2.30938,0 -3.17838,0.17243 -3.41694,0.67798 -0.17596,0.3729 -0.6593,1.35551 -1.0741,2.18359 -1.15947,2.31473 -0.97505,3.19414 0.8278,3.94742 1.69706,0.70907 2.2081,1.82201 0.64948,1.41442 -0.51286,-0.13412 -1.78409,0.14279 -2.82494,0.61534 -1.04085,0.47256 -2.43979,0.86367 -3.10876,0.86912 -0.66896,0.005 -1.34779,0.22269 -1.50851,0.48273 -0.19958,0.32295 0.47247,0.36 2.12029,0.11688 1.32687,-0.19575 3.42947,-0.35767 4.67244,-0.3598 1.87552,-0.003 2.30144,-0.15766 2.50383,-0.90786 0.41454,-1.53665 2.22385,-1.31398 5.52862,0.6804 1.68331,1.01586 3.29135,1.70438 3.57341,1.53004 0.37084,-0.22918 0.43882,0.40041 0.24551,2.27347 -0.25221,2.44366 -0.17937,2.7057 1.28561,4.62491 0.85412,1.11898 1.67902,2.53676 1.83309,3.15065 0.26199,1.04386 0.33289,1.06842 1.09451,0.37916 0.75886,-0.68676 0.86122,-0.66508 1.50183,0.31804 0.37811,0.58027 1.35029,2.47458 2.1604,4.20959 1.22367,2.62069 1.45501,3.61508 1.36697,5.87588 -0.0891,2.28853 -0.32208,2.97293 -1.46473,4.3033 -0.74732,0.87008 -1.85231,2.60198 -2.45555,3.84867 -0.99121,2.04847 -1.10221,2.8817 -1.15296,8.6546 -0.058,6.60169 0.23532,8.00719 1.77301,8.49523 1.66801,0.52941 2.24364,1.78256 2.7078,5.89495 0.65288,5.78447 4.02954,15.19669 6.28343,17.51465 1.90195,1.95603 2.19781,2.0412 2.60742,0.75067 0.21491,-0.67711 -0.10591,-1.44902 -1.13385,-2.72816 -1.12093,-1.39485 -1.48343,-2.34711 -1.66225,-4.36661 -0.12577,-1.42049 -0.60491,-3.5997 -1.06476,-4.84267 -1.76798,-4.77886 -1.25505,-4.29409 1.8191,1.71925 2.5565,5.00077 3.4964,6.42017 4.73524,7.15112 1.36376,0.80462 1.70927,1.42675 2.93606,5.2866 1.25882,3.96061 1.61086,4.57756 3.71957,6.51853 2.09517,1.9285 7.61654,5.11025 11.55863,6.66077 1.27652,0.50208 1.72817,0.47437 3.21794,-0.19742 l 1.73301,-0.78148 2.10358,1.6057 c 2.35114,1.79467 4.5262,2.54004 7.42293,2.54378 2.4919,0.003 3.69921,0.65672 3.69921,2.00231 0,1.58065 1.20266,2.72345 4.9719,4.72444 3.90572,2.07344 6.27422,2.36924 7.68384,0.95962 z m 5.42389,-18.75761 c 0,-0.7383 -2.46917,-0.98449 -2.89898,-0.28905 -0.37636,0.60897 0.22286,0.96703 1.61834,0.96703 0.83702,0 1.28064,-0.23486 1.28064,-0.67798 z m 10.01039,-1.64253 c 1.45494,-0.53051 2.64535,-1.12406 2.64535,-1.31901 0,-0.19496 0.12309,-0.67524 0.27354,-1.06729 0.23453,-0.61119 -0.0393,-0.67185 -1.92096,-0.42544 -3.12441,0.40915 -4.68045,1.29279 -4.68045,2.65791 0,1.36375 0.32674,1.3774 3.68252,0.15383 z m -6.72278,-1.65033 c 0.44092,-0.38968 0.63361,-0.87656 0.4282,-1.08197 -0.37314,-0.37315 -6.50185,-1.37181 -7.78373,-1.26835 -0.37289,0.0301 -2.4577,0.0319 -4.6329,0.004 -2.17521,-0.0279 -3.95181,0.11086 -3.948,0.30828 0.0303,1.57025 2.44323,2.45297 5.76474,2.10889 1.85028,-0.19168 3.04206,-0.0679 4.17213,0.43337 1.84373,0.81781 4.78318,0.57074 5.99956,-0.50427 z m 13.9939,-1.48011 c 1.13962,-1.06777 1.27004,-1.33435 0.57213,-1.16945 -0.4972,0.11748 -1.68654,0.34599 -2.64299,0.5078 -1.6868,0.28538 -1.71523,0.32048 -0.94693,1.16944 1.04714,1.15708 1.2833,1.11734 3.01779,-0.50779 z m 33.77823,-41.61675 c -2.46915,-9.67343 -6.86228,-20.81408 -7.82718,-19.84918 -0.25502,0.25502 -0.47622,2.24577 -0.49156,4.42388 -0.0241,3.43288 0.1303,4.26111 1.16001,6.22015 0.65333,1.24297 1.98143,3.78541 2.95133,5.64988 1.96578,3.77887 4.65183,7.85728 4.96716,7.54195 0.11298,-0.11297 -0.22891,-1.90698 -0.75976,-3.98668 z m -9.49277,-22.74537 c 0.4458,-0.53717 0.0269,-1.43238 -2.27366,-4.85891 -4.95675,-7.38276 -7.61385,-10.63648 -12.32143,-15.08799 -8.86791,-8.38557 -16.99221,-13.75542 -27.41051,-18.11731 -3.10008,-1.29793 -5.70838,-2.28802 -5.79621,-2.20019 -0.24076,0.24077 1.22116,2.98337 2.50148,4.69282 0.99993,1.33511 1.32287,1.48591 2.77158,1.29429 0.90187,-0.11929 2.06563,-0.3571 2.58615,-0.52846 0.74573,-0.2455 1.75189,0.37019 4.7459,2.90413 3.6535,3.0921 8.58755,5.88496 11.54388,6.53428 1.42189,0.3123 2.82523,1.53423 3.68469,3.20839 0.43767,0.85253 0.34894,0.9007 -1.35902,0.73783 -1.97587,-0.18843 -1.97826,-0.16077 -0.19774,2.28535 0.96616,1.32735 3.08613,2.28225 4.15565,1.87184 1.01336,-0.38887 2.83786,1.02706 3.56457,2.76635 0.53423,1.27859 1.0291,1.66048 2.82731,2.18179 2.33479,0.67688 3.29108,1.84016 3.30304,4.01802 0.003,0.66745 0.21968,1.77382 0.48002,2.45859 0.77402,2.03583 5.06735,6.40842 6.36416,6.48164 0.156,0.009 0.52956,-0.2803 0.83014,-0.64246 z m -128.79213,-6.35831 c 0.31445,-0.3789 0.45848,-0.80216 0.32004,-0.9406 -0.34589,-0.3459 -2.13707,0.65437 -2.13707,1.19343 0,0.67777 1.18108,0.51344 1.81703,-0.25283 z m -7.78729,-3.76543 c 0.1495,-0.45476 -0.0743,-0.52895 -0.86913,-0.28819 -1.72716,0.52314 -2.15947,1.21686 -0.65332,1.04839 0.72662,-0.0813 1.41172,-0.42336 1.52245,-0.7602 z"
     id="path2613"
     inkscape:export-xdpi="96"
     inkscape:export-ydpi="96" />
</svg>
